<svg xmlns="http://www.w3.org/2000/svg" xmlns:xlink="http://www.w3.org/1999/xlink" viewBox="0 0 154.75 154.75"><defs><style>.a{opacity:0.8;}.b{fill:url(#a);}.c{filter:url(#by);}.d{filter:url(#bv);}.e{filter:url(#bs);}.f{filter:url(#bp);}.g{filter:url(#bm);}.h{filter:url(#bj);}.i{filter:url(#bg);}.j{filter:url(#bd);}.k{filter:url(#ba);}.l{filter:url(#ax);}.m{filter:url(#au);}.n{filter:url(#ar);}.o{filter:url(#ao);}.p{filter:url(#al);}.q{filter:url(#ai);}.r{filter:url(#af);}.s{filter:url(#ac);}.t{filter:url(#z);}.u{filter:url(#w);}.v{filter:url(#t);}.w{filter:url(#q);}.x{filter:url(#n);}.y{filter:url(#k);}.z{filter:url(#h);}.aa{filter:url(#e);}.ab{filter:url(#b);}</style><linearGradient id="a" x1="0.061" y1="0.703" x2="0.832" y2="0.681" gradientUnits="objectBoundingBox"><stop offset="0" stop-color="#34495e"/><stop offset="1" stop-color="#e84c3d"/></linearGradient><filter id="b" x="13.575" y="50.13" width="98.361" height="100.452" filterUnits="userSpaceOnUse"><feOffset dx="15" dy="20" input="SourceAlpha"/><feGaussianBlur stdDeviation="15" result="c"/><feFlood flood-opacity="0.161"/><feComposite operator="in" in2="c"/><feComposite in="SourceGraphic"/></filter><filter id="e" x="8.349" y="54.311" width="92.09" height="92.09" filterUnits="userSpaceOnUse"><feOffset dx="15" dy="20" input="SourceAlpha"/><feGaussianBlur stdDeviation="15" result="f"/><feFlood flood-opacity="0.161"/><feComposite operator="in" in2="f"/><feComposite in="SourceGraphic"/></filter><filter id="h" x="25.059" y="54.311" width="92.09" height="92.09" filterUnits="userSpaceOnUse"><feOffset dx="15" dy="20" input="SourceAlpha"/><feGaussianBlur stdDeviation="15" result="i"/><feFlood flood-opacity="0.161"/><feComposite operator="in" in2="i"/><feComposite in="SourceGraphic"/></filter><filter id="k" x="0" y="0" width="154.75" height="154.75" filterUnits="userSpaceOnUse"><feOffset dx="15" dy="20" input="SourceAlpha"/><feGaussianBlur stdDeviation="15" result="l"/><feFlood flood-opacity="0.161"/><feComposite operator="in" in2="l"/><feComposite in="SourceGraphic"/></filter><filter id="n" x="42.814" y="35.51" width="107.755" height="98.349" filterUnits="userSpaceOnUse"><feOffset dx="15" dy="20" input="SourceAlpha"/><feGaussianBlur stdDeviation="15" result="o"/><feFlood flood-opacity="0.161"/><feComposite operator="in" in2="o"/><feComposite in="SourceGraphic"/></filter><filter id="q" x="42.814" y="45.949" width="92.09" height="92.09" filterUnits="userSpaceOnUse"><feOffset dx="15" dy="20" input="SourceAlpha"/><feGaussianBlur stdDeviation="15" result="r"/><feFlood flood-opacity="0.161"/><feComposite operator="in" in2="r"/><feComposite in="SourceGraphic"/></filter><filter id="t" x="48.04" y="45.949" width="92.09" height="92.09" filterUnits="userSpaceOnUse"><feOffset dx="15" dy="20" input="SourceAlpha"/><feGaussianBlur stdDeviation="15" result="u"/><feFlood flood-opacity="0.161"/><feComposite operator="in" in2="u"/><feComposite in="SourceGraphic"/></filter><filter id="w" x="53.266" y="45.949" width="92.09" height="92.09" filterUnits="userSpaceOnUse"><feOffset dx="15" dy="20" input="SourceAlpha"/><feGaussianBlur stdDeviation="15" result="x"/><feFlood flood-opacity="0.161"/><feComposite operator="in" in2="x"/><feComposite in="SourceGraphic"/></filter><filter id="z" x="58.479" y="45.949" width="92.09" height="92.09" filterUnits="userSpaceOnUse"><feOffset dx="15" dy="20" input="SourceAlpha"/><feGaussianBlur stdDeviation="15" result="aa"/><feFlood flood-opacity="0.161"/><feComposite operator="in" in2="aa"/><feComposite in="SourceGraphic"/></filter><filter id="ac" x="42.814" y="50.13" width="92.09" height="92.09" filterUnits="userSpaceOnUse"><feOffset dx="15" dy="20" input="SourceAlpha"/><feGaussianBlur stdDeviation="15" result="ad"/><feFlood flood-opacity="0.161"/><feComposite operator="in" in2="ad"/><feComposite in="SourceGraphic"/></filter><filter id="af" x="48.04" y="50.13" width="92.09" height="92.09" filterUnits="userSpaceOnUse"><feOffset dx="15" dy="20" input="SourceAlpha"/><feGaussianBlur stdDeviation="15" result="ag"/><feFlood flood-opacity="0.161"/><feComposite operator="in" in2="ag"/><feComposite in="SourceGraphic"/></filter><filter id="ai" x="53.266" y="50.13" width="92.09" height="92.09" filterUnits="userSpaceOnUse"><feOffset dx="15" dy="20" input="SourceAlpha"/><feGaussianBlur stdDeviation="15" result="aj"/><feFlood flood-opacity="0.161"/><feComposite operator="in" in2="aj"/><feComposite in="SourceGraphic"/></filter><filter id="al" x="58.479" y="50.13" width="92.09" height="92.09" filterUnits="userSpaceOnUse"><feOffset dx="15" dy="20" input="SourceAlpha"/><feGaussianBlur stdDeviation="15" result="am"/><feFlood flood-opacity="0.161"/><feComposite operator="in" in2="am"/><feComposite in="SourceGraphic"/></filter><filter id="ao" x="42.814" y="54.311" width="92.09" height="92.09" filterUnits="userSpaceOnUse"><feOffset dx="15" dy="20" input="SourceAlpha"/><feGaussianBlur stdDeviation="15" result="ap"/><feFlood flood-opacity="0.161"/><feComposite operator="in" in2="ap"/><feComposite in="SourceGraphic"/></filter><filter id="ar" x="48.04" y="54.311" width="92.09" height="92.09" filterUnits="userSpaceOnUse"><feOffset dx="15" dy="20" input="SourceAlpha"/><feGaussianBlur stdDeviation="15" result="as"/><feFlood flood-opacity="0.161"/><feComposite operator="in" in2="as"/><feComposite in="SourceGraphic"/></filter><filter id="au" x="53.266" y="54.311" width="92.09" height="92.09" filterUnits="userSpaceOnUse"><feOffset dx="15" dy="20" input="SourceAlpha"/><feGaussianBlur stdDeviation="15" result="av"/><feFlood flood-opacity="0.161"/><feComposite operator="in" in2="av"/><feComposite in="SourceGraphic"/></filter><filter id="ax" x="58.479" y="54.311" width="92.09" height="92.09" filterUnits="userSpaceOnUse"><feOffset dx="15" dy="20" input="SourceAlpha"/><feGaussianBlur stdDeviation="15" result="ay"/><feFlood flood-opacity="0.161"/><feComposite operator="in" in2="ay"/><feComposite in="SourceGraphic"/></filter><filter id="ba" x="42.814" y="58.479" width="92.09" height="92.09" filterUnits="userSpaceOnUse"><feOffset dx="15" dy="20" input="SourceAlpha"/><feGaussianBlur stdDeviation="15" result="bb"/><feFlood flood-opacity="0.161"/><feComposite operator="in" in2="bb"/><feComposite in="SourceGraphic"/></filter><filter id="bd" x="48.04" y="58.479" width="92.09" height="92.09" filterUnits="userSpaceOnUse"><feOffset dx="15" dy="20" input="SourceAlpha"/><feGaussianBlur stdDeviation="15" result="be"/><feFlood flood-opacity="0.161"/><feComposite operator="in" in2="be"/><feComposite in="SourceGraphic"/></filter><filter id="bg" x="53.266" y="58.479" width="92.09" height="92.09" filterUnits="userSpaceOnUse"><feOffset dx="15" dy="20" input="SourceAlpha"/><feGaussianBlur stdDeviation="15" result="bh"/><feFlood flood-opacity="0.161"/><feComposite operator="in" in2="bh"/><feComposite in="SourceGraphic"/></filter><filter id="bj" x="58.479" y="58.479" width="92.09" height="92.09" filterUnits="userSpaceOnUse"><feOffset dx="15" dy="20" input="SourceAlpha"/><feGaussianBlur stdDeviation="15" result="bk"/><feFlood flood-opacity="0.161"/><feComposite operator="in" in2="bk"/><feComposite in="SourceGraphic"/></filter><filter id="bm" x="15.665" y="5.226" width="104.62" height="106.71" filterUnits="userSpaceOnUse"><feOffset dx="15" dy="20" input="SourceAlpha"/><feGaussianBlur stdDeviation="15" result="bn"/><feFlood flood-opacity="0.161"/><feComposite operator="in" in2="bn"/><feComposite in="SourceGraphic"/></filter><filter id="bp" x="33.42" y="12.529" width="105.665" height="92.09" filterUnits="userSpaceOnUse"><feOffset dx="15" dy="20" input="SourceAlpha"/><feGaussianBlur stdDeviation="15" result="bq"/><feFlood flood-opacity="0.161"/><feComposite operator="in" in2="bq"/><feComposite in="SourceGraphic"/></filter><filter id="bs" x="33.42" y="19.846" width="105.665" height="92.09" filterUnits="userSpaceOnUse"><feOffset dx="15" dy="20" input="SourceAlpha"/><feGaussianBlur stdDeviation="15" result="bt"/><feFlood flood-opacity="0.161"/><feComposite operator="in" in2="bt"/><feComposite in="SourceGraphic"/></filter><filter id="bv" x="15.665" y="27.149" width="123.42" height="92.09" filterUnits="userSpaceOnUse"><feOffset dx="15" dy="20" input="SourceAlpha"/><feGaussianBlur stdDeviation="15" result="bw"/><feFlood flood-opacity="0.161"/><feComposite operator="in" in2="bw"/><feComposite in="SourceGraphic"/></filter><filter id="by" x="15.665" y="35.51" width="109.846" height="92.09" filterUnits="userSpaceOnUse"><feOffset dx="15" dy="20" input="SourceAlpha"/><feGaussianBlur stdDeviation="15" result="bz"/><feFlood flood-opacity="0.161"/><feComposite operator="in" in2="bz"/><feComposite in="SourceGraphic"/></filter></defs><g class="a" transform="translate(30 25)"><g transform="translate(13.575 50.13)"><g class="ab" transform="matrix(1, 0, 0, 1, -43.57, -75.13)"><path class="b" d="M110.681,393.3c-2.307,0-4.181,2.345-4.181,5.226s1.874,5.226,4.181,5.226,4.181-2.345,4.181-5.226S112.988,393.3,110.681,393.3Zm0,8.349c-1.134,0-2.09-1.44-2.09-3.136s.956-3.135,2.09-3.135,2.09,1.44,2.09,3.135S111.815,401.649,110.681,401.649Z" transform="translate(-62.93 -318.17)"/></g></g><g transform="translate(8.349 54.311)"><g class="aa" transform="matrix(1, 0, 0, 1, -38.35, -79.31)"><rect class="b" width="2.09" height="2.09" rx="1.045" transform="translate(38.35 79.31)"/></g></g><g transform="translate(25.059 54.311)"><g class="z" transform="matrix(1, 0, 0, 1, -55.06, -79.31)"><rect class="b" width="2.09" height="2.09" rx="1.045" transform="translate(55.06 79.31)"/></g></g><g class="y" transform="matrix(1, 0, 0, 1, -30, -25)"><path class="b" d="M54.311,31.33V0H10.439V45.949H0v18.8H35.51V56.388h3.136V64.75h26.1V31.33ZM2.09,48.04H5.073A4.179,4.179,0,0,1,2.09,51.022Zm0,14.62V59.677a4.179,4.179,0,0,1,2.983,2.983Zm31.33,0H30.437a4.179,4.179,0,0,1,2.983-2.983Zm0-5.137a6.285,6.285,0,0,0-5.137,5.137H7.227A6.285,6.285,0,0,0,2.09,57.523V53.176A6.285,6.285,0,0,0,7.227,48.04H28.283a6.285,6.285,0,0,0,5.137,5.137v4.346Zm0-6.5a4.179,4.179,0,0,1-2.983-2.983H33.42Zm5.226,3.288H35.51V45.949H12.529V2.09H52.22V31.33H38.646Zm24.013,8.349H40.724V33.42H62.659Z" transform="translate(30 25)"/></g><g transform="translate(42.814 35.51)"><g class="x" transform="matrix(1, 0, 0, 1, -72.81, -60.51)"><path class="b" d="M335.9,278.6v8.349h17.755V278.6Zm15.665,6.258H337.99V280.69h13.575Z" transform="translate(-263.09 -218.09)"/></g></g><g transform="translate(42.814 45.949)"><g class="w" transform="matrix(1, 0, 0, 1, -72.81, -70.95)"><rect class="b" width="2.09" height="2.09" rx="1.045" transform="translate(72.81 70.95)"/></g></g><g transform="translate(48.04 45.949)"><g class="v" transform="matrix(1, 0, 0, 1, -78.04, -70.95)"><rect class="b" width="2.09" height="2.09" rx="1.045" transform="translate(78.04 70.95)"/></g></g><g transform="translate(53.266 45.949)"><g class="u" transform="matrix(1, 0, 0, 1, -83.27, -70.95)"><rect class="b" width="2.09" height="2.09" rx="1.045" transform="translate(83.27 70.95)"/></g></g><g transform="translate(58.479 45.949)"><g class="t" transform="matrix(1, 0, 0, 1, -88.48, -70.95)"><rect class="b" width="2.09" height="2.09" rx="1.045" transform="translate(88.48 70.95)"/></g></g><g transform="translate(42.814 50.13)"><g class="s" transform="matrix(1, 0, 0, 1, -72.81, -75.13)"><rect class="b" width="2.09" height="2.09" rx="1.045" transform="translate(72.81 75.13)"/></g></g><g transform="translate(48.04 50.13)"><g class="r" transform="matrix(1, 0, 0, 1, -78.04, -75.13)"><rect class="b" width="2.09" height="2.09" rx="1.045" transform="translate(78.04 75.13)"/></g></g><g transform="translate(53.266 50.13)"><g class="q" transform="matrix(1, 0, 0, 1, -83.27, -75.13)"><rect class="b" width="2.09" height="2.09" rx="1.045" transform="translate(83.27 75.13)"/></g></g><g transform="translate(58.479 50.13)"><g class="p" transform="matrix(1, 0, 0, 1, -88.48, -75.13)"><rect class="b" width="2.09" height="2.09" rx="1.045" transform="translate(88.48 75.13)"/></g></g><g transform="translate(42.814 54.311)"><g class="o" transform="matrix(1, 0, 0, 1, -72.81, -79.31)"><rect class="b" width="2.09" height="2.09" rx="1.045" transform="translate(72.81 79.31)"/></g></g><g transform="translate(48.04 54.311)"><g class="n" transform="matrix(1, 0, 0, 1, -78.04, -79.31)"><rect class="b" width="2.09" height="2.09" rx="1.045" transform="translate(78.04 79.31)"/></g></g><g transform="translate(53.266 54.311)"><g class="m" transform="matrix(1, 0, 0, 1, -83.27, -79.31)"><rect class="b" width="2.09" height="2.09" rx="1.045" transform="translate(83.27 79.31)"/></g></g><g transform="translate(58.479 54.311)"><g class="l" transform="matrix(1, 0, 0, 1, -88.48, -79.31)"><rect class="b" width="2.09" height="2.09" rx="1.045" transform="translate(88.48 79.31)"/></g></g><g transform="translate(42.814 58.479)"><g class="k" transform="matrix(1, 0, 0, 1, -72.81, -83.48)"><rect class="b" width="2.09" height="2.09" rx="1.045" transform="translate(72.81 83.48)"/></g></g><g transform="translate(48.04 58.479)"><g class="j" transform="matrix(1, 0, 0, 1, -78.04, -83.48)"><rect class="b" width="2.09" height="2.09" rx="1.045" transform="translate(78.04 83.48)"/></g></g><g transform="translate(53.266 58.479)"><g class="i" transform="matrix(1, 0, 0, 1, -83.27, -83.48)"><rect class="b" width="2.09" height="2.09" rx="1.045" transform="translate(83.27 83.48)"/></g></g><g transform="translate(58.479 58.479)"><g class="h" transform="matrix(1, 0, 0, 1, -88.48, -83.48)"><rect class="b" width="2.09" height="2.09" rx="1.045" transform="translate(88.48 83.48)"/></g></g><g transform="translate(15.665 5.226)"><g class="g" transform="matrix(1, 0, 0, 1, -45.66, -30.23)"><path class="b" d="M122.9,41V57.71h14.62V41Zm12.529,14.62H124.99V43.09h10.439Z" transform="translate(-77.24 -10.77)"/></g></g><g transform="translate(33.42 12.529)"><g class="f" transform="matrix(1, 0, 0, 1, -63.42, -37.53)"><rect class="b" width="15.665" height="2.09" rx="1.045" transform="translate(63.42 37.53)"/></g></g><g transform="translate(33.42 19.846)"><g class="e" transform="matrix(1, 0, 0, 1, -63.42, -44.85)"><rect class="b" width="15.665" height="2.09" rx="1.045" transform="translate(63.42 44.85)"/></g></g><g transform="translate(15.665 27.149)"><g class="d" transform="matrix(1, 0, 0, 1, -45.66, -52.15)"><rect class="b" width="33.42" height="2.09" rx="1.045" transform="translate(45.66 52.15)"/></g></g><g transform="translate(15.665 35.51)"><g class="c" transform="matrix(1, 0, 0, 1, -45.66, -60.51)"><rect class="b" width="19.846" height="2.09" rx="1.045" transform="translate(45.66 60.51)"/></g></g></g></svg>