<svg xmlns="http://www.w3.org/2000/svg" xmlns:xlink="http://www.w3.org/1999/xlink" viewBox="0 0 67 67.001"><defs><style>.a{opacity:0.8;}.b{fill:url(#a);}</style><linearGradient id="a" x1="0.061" y1="0.703" x2="0.832" y2="0.681" gradientUnits="objectBoundingBox"><stop offset="0" stop-color="#34495e"/><stop offset="1" stop-color="#e84c3d"/></linearGradient></defs><g class="a" transform="translate(-0.003 0.001)"><g transform="translate(5.586 6.7)"><rect class="b" width="14.517" height="2.233"/></g><g transform="translate(5.586 11.167)"><rect class="b" width="14.517" height="2.233"/></g><g transform="translate(5.586 15.634)"><rect class="b" width="10.05" height="2.233"/></g><g transform="translate(5.586 20.1)"><rect class="b" width="10.05" height="2.233"/></g><g transform="translate(0.003 64.767)"><g transform="translate(0)"><rect class="b" width="67" height="2.233"/></g></g><g transform="translate(4.375 -0.001)"><g transform="translate(0 0)"><path class="b" d="M91.6,9.551,87.134.618a1.117,1.117,0,0,0-1.5-.5h0L76.7,4.584a1.117,1.117,0,1,0,1,2L84.17,3.35,82.4,8.391A59.591,59.591,0,0,1,31.323,48.017l.19,2.233a61.825,61.825,0,0,0,53-41.122l1.8-5.15L89.6,10.55a1.117,1.117,0,0,0,2-1Z" transform="translate(-31.323 0.001)"/></g></g><g transform="translate(4.47 53.6)"><path class="b" d="M40.936,384.006H33.12A1.117,1.117,0,0,0,32,385.123v6.7a1.117,1.117,0,0,0,1.117,1.117h7.817a1.117,1.117,0,0,0,1.117-1.117v-6.7A1.117,1.117,0,0,0,40.936,384.006Zm-1.117,6.7H34.236v-4.467H39.82Z" transform="translate(-32.003 -384.006)"/></g><g transform="translate(16.753 50.25)"><path class="b" d="M128.936,360.006H121.12A1.117,1.117,0,0,0,120,361.123v10.05a1.117,1.117,0,0,0,1.117,1.117h7.817a1.117,1.117,0,0,0,1.117-1.117v-10.05A1.117,1.117,0,0,0,128.936,360.006Zm-1.117,10.05h-5.583v-7.817h5.583Z" transform="translate(-120.003 -360.006)"/></g><g transform="translate(29.036 44.667)"><path class="b" d="M216.936,320.006H209.12A1.117,1.117,0,0,0,208,321.123v15.633a1.117,1.117,0,0,0,1.117,1.117h7.817a1.117,1.117,0,0,0,1.117-1.117V321.123A1.117,1.117,0,0,0,216.936,320.006Zm-1.117,15.633h-5.583v-13.4h5.583Z" transform="translate(-208.003 -320.006)"/></g><g transform="translate(41.32 36.85)"><path class="b" d="M304.936,264.006H297.12A1.117,1.117,0,0,0,296,265.123v23.45a1.117,1.117,0,0,0,1.117,1.117h7.817a1.117,1.117,0,0,0,1.117-1.117v-23.45A1.117,1.117,0,0,0,304.936,264.006Zm-1.117,23.45h-5.583V266.239h5.583Z" transform="translate(-296.003 -264.006)"/></g><g transform="translate(53.603 21.217)"><path class="b" d="M392.936,152.006H385.12A1.117,1.117,0,0,0,384,153.123v39.083a1.117,1.117,0,0,0,1.117,1.117h7.817a1.117,1.117,0,0,0,1.117-1.117V153.123A1.117,1.117,0,0,0,392.936,152.006Zm-1.117,39.083h-5.583v-36.85h5.583Z" transform="translate(-384.003 -152.006)"/></g></g></svg>