<svg xmlns="http://www.w3.org/2000/svg" xmlns:xlink="http://www.w3.org/1999/xlink" viewBox="0 0 210 210"><defs><style>.a{opacity:0.7;}.b{fill:url(#a);}.c{filter:url(#t);}.d{filter:url(#q);}.e{filter:url(#n);}.f{filter:url(#k);}.g{filter:url(#h);}.h{filter:url(#e);}.i{filter:url(#b);}</style><linearGradient id="a" x1="0.061" y1="0.703" x2="0.832" y2="0.681" gradientUnits="objectBoundingBox"><stop offset="0" stop-color="#34495e"/><stop offset="1" stop-color="#e84c3d"/></linearGradient><filter id="b" x="83.906" y="32.578" width="94.688" height="94.688" filterUnits="userSpaceOnUse"><feOffset dx="15" dy="20" input="SourceAlpha"/><feGaussianBlur stdDeviation="15" result="c"/><feFlood flood-opacity="0.161"/><feComposite operator="in" in2="c"/><feComposite in="SourceGraphic"/></filter><filter id="e" x="14.062" y="66.094" width="113.438" height="113.438" filterUnits="userSpaceOnUse"><feOffset dx="15" dy="20" input="SourceAlpha"/><feGaussianBlur stdDeviation="15" result="f"/><feFlood flood-opacity="0.161"/><feComposite operator="in" in2="f"/><feComposite in="SourceGraphic"/></filter><filter id="h" x="48.984" y="48.984" width="161.016" height="161.016" filterUnits="userSpaceOnUse"><feOffset dx="15" dy="20" input="SourceAlpha"/><feGaussianBlur stdDeviation="15" result="i"/><feFlood flood-opacity="0.161"/><feComposite operator="in" in2="i"/><feComposite in="SourceGraphic"/></filter><filter id="k" x="77.276" y="77.276" width="121.005" height="121.006" filterUnits="userSpaceOnUse"><feOffset dx="15" dy="20" input="SourceAlpha"/><feGaussianBlur stdDeviation="15" result="l"/><feFlood flood-opacity="0.161"/><feComposite operator="in" in2="l"/><feComposite in="SourceGraphic"/></filter><filter id="n" x="0" y="0" width="199.216" height="210" filterUnits="userSpaceOnUse"><feOffset dx="15" dy="20" input="SourceAlpha"/><feGaussianBlur stdDeviation="15" result="o"/><feFlood flood-opacity="0.161"/><feComposite operator="in" in2="o"/><feComposite in="SourceGraphic"/></filter><filter id="q" x="74.911" y="74.056" width="94.688" height="94.688" filterUnits="userSpaceOnUse"><feOffset dx="15" dy="20" input="SourceAlpha"/><feGaussianBlur stdDeviation="15" result="r"/><feFlood flood-opacity="0.161"/><feComposite operator="in" in2="r"/><feComposite in="SourceGraphic"/></filter><filter id="t" x="44.766" y="35.391" width="107.813" height="107.813" filterUnits="userSpaceOnUse"><feOffset dx="15" dy="20" input="SourceAlpha"/><feGaussianBlur stdDeviation="15" result="u"/><feFlood flood-opacity="0.161"/><feComposite operator="in" in2="u"/><feComposite in="SourceGraphic"/></filter></defs><g class="a" transform="translate(30 25)"><g transform="translate(83.906 32.578)"><g class="i" transform="matrix(1, 0, 0, 1, -113.91, -57.58)"><path class="b" d="M362,139.688a2.342,2.342,0,1,0,.687,1.657A2.361,2.361,0,0,0,362,139.688Z" transform="translate(-244.09 -81.42)"/></g></g><g transform="translate(14.062 66.094)"><g class="h" transform="matrix(1, 0, 0, 1, -44.06, -91.09)"><path class="b" d="M81.094,282H62.344A2.344,2.344,0,0,0,60,284.345v18.75a2.344,2.344,0,0,0,2.344,2.344h18.75a2.344,2.344,0,0,0,2.344-2.344v-18.75A2.344,2.344,0,0,0,81.094,282Zm-2.344,18.75H64.687V286.689H78.75Z" transform="translate(-15.94 -190.91)"/></g></g><g transform="translate(48.984 48.984)"><g class="g" transform="matrix(1, 0, 0, 1, -78.98, -73.98)"><path class="b" d="M278.569,209.179a2.344,2.344,0,0,0-2.554.508l-23.882,23.882h0l-27.84,27.84h0l-14.6,14.6a2.344,2.344,0,0,0,1.657,4h66.328a2.344,2.344,0,0,0,2.344-2.344V211.344A2.344,2.344,0,0,0,278.569,209.179Zm-3.241,66.15H217l8.944-8.944,2.237,2.237a2.344,2.344,0,0,0,3.315-3.315l-2.237-2.237,5.966-5.966,2.237,2.237a2.344,2.344,0,0,0,3.315-3.315l-2.237-2.237,5.966-5.966,2.237,2.237a2.344,2.344,0,1,0,3.315-3.315l-2.237-2.237,5.966-5.966,2.237,2.237a2.344,2.344,0,0,0,3.315-3.315l-2.237-2.237,5.966-5.966,2.237,2.237a2.344,2.344,0,0,0,3.315-3.315l-2.237-2.237L275.328,217Z" transform="translate(-130.02 -135.02)"/></g></g><g transform="translate(77.276 77.276)"><g class="f" transform="matrix(1, 0, 0, 1, -107.28, -102.28)"><path class="b" d="M359.269,329.89a2.344,2.344,0,0,0-2.554.508L330.4,356.715a2.344,2.344,0,0,0,1.657,4h26.318a2.344,2.344,0,0,0,2.344-2.344V332.055A2.344,2.344,0,0,0,359.269,329.89Zm-3.241,26.139H337.713l18.315-18.316Z" transform="translate(-222.43 -227.43)"/></g></g><g transform="translate(0 0)"><g class="e" transform="matrix(1, 0, 0, 1, -30, -25)"><path class="b" d="M108.53,34.983a2.344,2.344,0,0,0-2.463-.544l-16,5.861a2.346,2.346,0,0,0-.851.544l-4.5,4.5L55.329,15.961a2.344,2.344,0,0,0-3.315,0L16.647,51.329H8l45.67-45.67L78.734,30.72a2.344,2.344,0,0,0,3.315-3.315L55.33.687a2.344,2.344,0,0,0-3.315,0L.687,52.015a2.344,2.344,0,0,0,1.657,4H4.688v61.641A2.344,2.344,0,0,0,7.031,120H44.294a2.344,2.344,0,1,0,0-4.687H9.375v-59.3h8.243a2.344,2.344,0,0,0,1.657-.686l34.4-34.4L81.4,48.658,46.641,83.415V62.344H63.047a2.344,2.344,0,0,0,0-4.688H44.3A2.344,2.344,0,0,0,41.953,60V87.188a2.335,2.335,0,0,0,.135.779l-2.1,2.1a9.516,9.516,0,0,0,13.457,13.458L73.211,83.759A2.344,2.344,0,0,0,69.9,80.444L54.922,95.419l-6.828-6.828L90.916,45.769,97.744,52.6,81.381,68.96A2.344,2.344,0,0,0,84.7,72.274L102.669,54.3a2.345,2.345,0,0,0,.543-.851l5.861-16A2.344,2.344,0,0,0,108.53,34.983ZM51.608,98.733l-1.476,1.476A4.828,4.828,0,0,1,43.3,93.381l1.476-1.476ZM100.1,48.322l-4.907-4.907,7.743-2.836Z" transform="translate(30 25)"/></g></g><g transform="translate(74.911 74.056)"><g class="d" transform="matrix(1, 0, 0, 1, -104.91, -99.06)"><path class="b" d="M323.621,316.658a2.345,2.345,0,1,0,.687,1.657A2.361,2.361,0,0,0,323.621,316.658Z" transform="translate(-214.71 -216.92)"/></g></g><g transform="translate(44.766 35.391)"><g class="c" transform="matrix(1, 0, 0, 1, -74.77, -60.39)"><path class="b" d="M199.906,151a8.906,8.906,0,1,0,8.906,8.906A8.916,8.916,0,0,0,199.906,151Zm0,13.125a4.219,4.219,0,1,1,4.219-4.219A4.223,4.223,0,0,1,199.906,164.126Z" transform="translate(-116.23 -90.61)"/></g></g></g></svg>