<svg xmlns="http://www.w3.org/2000/svg" xmlns:xlink="http://www.w3.org/1999/xlink" viewBox="0 0 65.99 65.988"><defs><style>.a{opacity:0.8;}.b{fill:url(#a);}</style><linearGradient id="a" x1="0.061" y1="0.703" x2="0.832" y2="0.681" gradientUnits="objectBoundingBox"><stop offset="0" stop-color="#34495e"/><stop offset="1" stop-color="#e84c3d"/></linearGradient></defs><g class="a" transform="translate(-925.01 252.98)"><g transform="translate(925.01 -252.988)"><g transform="translate(0 0.008)"><path class="b" d="M222.967,155.258a1.1,1.1,0,0,0-1.1,1.1v13.748a1.1,1.1,0,0,0,1.1,1.1h32.994a1.1,1.1,0,0,0,1.1-1.1V156.357a1.1,1.1,0,1,0-2.2,0v12.648h-15.4v-14.3a1.1,1.1,0,0,0-1.1-1.1h-8.8a1.1,1.1,0,0,0-1.1,1.1v14.3h-4.4V156.357A1.1,1.1,0,0,0,222.967,155.258Zm7.7.55h6.6v5.5h-1.1a1.1,1.1,0,1,0,0,2.2h1.1v5.5h-6.6Z" transform="translate(-193.272 -133.812)"/><path class="b" d="M205.479,20.821a1.1,1.1,0,0,0,1.2-.239L224.6,2.661l17.916,17.921a1.1,1.1,0,0,0,1.877-.778V3.307a1.1,1.1,0,0,0-1.1-1.1h-11a1.1,1.1,0,1,0,0,2.2h9.9V17.148L225.381.33a1.14,1.14,0,0,0-1.562,0L207,17.149V4.407h5.5a1.1,1.1,0,0,0,1.1-1.1v-1.1h2.2v1.1a1.1,1.1,0,1,0,2.2,0v-2.2a1.1,1.1,0,0,0-1.1-1.1h-4.4a1.1,1.1,0,0,0-1.1,1.1v1.1h-5.5a1.1,1.1,0,0,0-1.1,1.1V19.8A1.1,1.1,0,0,0,205.479,20.821Z" transform="translate(-178.406 -0.008)"/><path class="b" d="M383.166,164.606a1.1,1.1,0,0,0,1.1-1.1v-8.8a1.1,1.1,0,0,0-1.1-1.1h-6.6a1.1,1.1,0,0,0-1.1,1.1v8.8a1.1,1.1,0,0,0,1.1,1.1Zm-5.5-8.8h4.4v6.6h-4.4Z" transform="translate(-327.076 -133.812)"/><path class="b" d="M20.366,445.391a1.65,1.65,0,1,0-1.65,1.65A1.652,1.652,0,0,0,20.366,445.391Z" transform="translate(-14.867 -386.551)"/><path class="b" d="M154.6,343.477a4.385,4.385,0,0,0-5.94-1.646L136,347.992c-1.968.984-3.954.984-8.307.984a84.591,84.591,0,0,1-10.818-1.084,1.1,1.1,0,1,0-.361,2.169,84.653,84.653,0,0,0,11.178,1.115c4.566,0,6.858,0,9.28-1.211l12.716-6.193a2.2,2.2,0,1,1,2.169,3.828l-14.87,9.255c-.031.021-3.2,2.019-10.394,2.019-6.235,0-15.867-5.308-16.005-5.384a17.007,17.007,0,0,0-7.09-1.215,1.1,1.1,0,0,0,0,2.2,15.6,15.6,0,0,1,6.065.962h0c.416.231,10.225,5.638,17.03,5.638,7.941,0,11.462-2.288,11.579-2.366l14.817-9.222a4.4,4.4,0,0,0,1.61-6.009Z" transform="translate(-89.202 -297.285)"/><path class="b" d="M103.5,309.407h8.8c1.283,0,3.464,1.637,5.389,3.079,2.413,1.81,4.693,3.519,6.709,3.519h6.6a3.825,3.825,0,0,1,2.522.778,1.1,1.1,0,0,0,1.555-1.555,5.841,5.841,0,0,0-4.077-1.422h-6.6c-1.283,0-3.464-1.637-5.389-3.079-2.413-1.81-4.693-3.519-6.709-3.519h-8.8a1.1,1.1,0,0,0,0,2.2Z" transform="translate(-89.202 -267.614)"/><path class="b" d="M7.7,273.074H1.1a1.1,1.1,0,0,0,0,2.2H7.7a1.1,1.1,0,0,1,1.1,1.1v24.2a1.1,1.1,0,0,1-1.1,1.1H1.1a1.1,1.1,0,0,0,0,2.2H7.7a3.3,3.3,0,0,0,3.3-3.3v-24.2A3.3,3.3,0,0,0,7.7,273.074Z" transform="translate(0 -237.88)"/></g></g></g></svg>