<svg xmlns="http://www.w3.org/2000/svg" xmlns:xlink="http://www.w3.org/1999/xlink" viewBox="0 0 210 210"><defs><style>.a{opacity:0.7;}.b{fill:url(#a);}.c{filter:url(#n);}.d{filter:url(#k);}.e{filter:url(#h);}.f{filter:url(#e);}.g{filter:url(#b);}</style><linearGradient id="a" x1="0.061" y1="0.703" x2="0.832" y2="0.681" gradientUnits="objectBoundingBox"><stop offset="0" stop-color="#34495e"/><stop offset="1" stop-color="#e84c3d"/></linearGradient><filter id="b" x="9.118" y="9.027" width="200.881" height="200.972" filterUnits="userSpaceOnUse"><feOffset dx="15" dy="20" input="SourceAlpha"/><feGaussianBlur stdDeviation="15" result="c"/><feFlood flood-opacity="0.161"/><feComposite operator="in" in2="c"/><feComposite in="SourceGraphic"/></filter><filter id="e" x="0" y="0" width="210" height="210" filterUnits="userSpaceOnUse"><feOffset dx="15" dy="20" input="SourceAlpha"/><feGaussianBlur stdDeviation="15" result="f"/><feFlood flood-opacity="0.161"/><feComposite operator="in" in2="f"/><feComposite in="SourceGraphic"/></filter><filter id="h" x="72.371" y="18.93" width="110.319" height="124.073" filterUnits="userSpaceOnUse"><feOffset dx="15" dy="20" input="SourceAlpha"/><feGaussianBlur stdDeviation="15" result="i"/><feFlood flood-opacity="0.161"/><feComposite operator="in" in2="i"/><feComposite in="SourceGraphic"/></filter><filter id="k" x="28.497" y="87.72" width="94.331" height="94.331" filterUnits="userSpaceOnUse"><feOffset dx="15" dy="20" input="SourceAlpha"/><feGaussianBlur stdDeviation="15" result="l"/><feFlood flood-opacity="0.161"/><feComposite operator="in" in2="l"/><feComposite in="SourceGraphic"/></filter><filter id="n" x="20.66" y="39.735" width="94.331" height="94.331" filterUnits="userSpaceOnUse"><feOffset dx="15" dy="20" input="SourceAlpha"/><feGaussianBlur stdDeviation="15" result="o"/><feFlood flood-opacity="0.161"/><feComposite operator="in" in2="o"/><feComposite in="SourceGraphic"/></filter></defs><g class="a" transform="translate(30 25)"><g transform="translate(9.118 9.027)"><g class="g" transform="matrix(1, 0, 0, 1, -39.12, -34.03)"><path class="b" d="M147.619,49.4a2.166,2.166,0,0,0-2.166,2.166v93.595H128.137v-4.877H138.5a2.166,2.166,0,0,0,2.166-2.166V99.824a2.166,2.166,0,0,0-2.166-2.166h-9.254V92.872H138.5a2.166,2.166,0,0,0,2.166-2.166V40.684a2.166,2.166,0,0,0-2.166-2.166H94.344a2.166,2.166,0,0,0-2.166,2.166V72.054H87.392V40.684a2.166,2.166,0,0,0-2.166-2.166H41.069A2.166,2.166,0,0,0,38.9,40.684V90.707a2.166,2.166,0,0,0,2.166,2.166H48.9a2.166,2.166,0,1,0,0-4.331H43.234V83.594h9.19A13.91,13.91,0,0,0,66.319,69.7V42.849H83.06V74.22a2.166,2.166,0,0,0,2.166,2.166h9.118A2.166,2.166,0,0,0,96.51,74.22V42.849h39.826v5.572h-5.719a2.166,2.166,0,0,0-2.166,2.166V80.328a2.166,2.166,0,0,0,2.166,2.166h5.719v6.047h-9.254a2.166,2.166,0,0,0-2.166,2.166v9.118a2.166,2.166,0,0,0,2.166,2.166h9.254v33.961H125.971a2.166,2.166,0,0,0-2.166,2.166v9.208a2.166,2.166,0,0,0,2.166,2.166h21.648a2.166,2.166,0,0,0,2.166-2.166V51.564A2.165,2.165,0,0,0,147.619,49.4ZM61.988,69.7h0a9.574,9.574,0,0,1-9.563,9.563h-9.19V42.849h1.58v1.4a2.166,2.166,0,1,0,4.331,0v-1.4h1.3V48.58a2.166,2.166,0,1,0,4.331,0V42.849h1.3v1.4a2.166,2.166,0,0,0,4.331,0v-1.4h1.58V69.7Zm74.348,8.463h-3.553V52.752h3.553Z" transform="translate(0.21 -4.49)"/></g></g><g transform="translate(0 0)"><g class="f" transform="matrix(1, 0, 0, 1, -30, -25)"><path class="b" d="M117.834,0H2.166A2.166,2.166,0,0,0,0,2.167V117.835A2.166,2.166,0,0,0,2.166,120H78.743a2.166,2.166,0,0,0,2.166-2.166v-9.208a2.166,2.166,0,0,0-2.166-2.166H66.724V85.378a2.166,2.166,0,0,0-2.166-2.166H55.441a2.166,2.166,0,0,0-2.166,2.166v21.084H13.449V101.5h6.585a5.962,5.962,0,0,0,4.911-2.586,13.723,13.723,0,0,0,6.321,1.5c6.755,0,12.251-4.722,12.251-10.526a9.411,9.411,0,0,0-1.426-4.943,2.166,2.166,0,0,0-3.685,2.276,5.015,5.015,0,0,1,.779,2.666c0,3.416-3.553,6.195-7.92,6.195A9.242,9.242,0,0,1,26,94.5V85.275a9.244,9.244,0,0,1,5.266-1.584,9.571,9.571,0,0,1,3.583.676,2.166,2.166,0,0,0,1.613-4.02,13.878,13.878,0,0,0-5.2-.988,13.721,13.721,0,0,0-6.322,1.5,5.962,5.962,0,0,0-4.91-2.584H13.449V72.5H73.221a2.166,2.166,0,0,0,2.166-2.166V61.217a2.166,2.166,0,0,0-2.166-2.166H26.044a2.166,2.166,0,1,0,0,4.331H71.056v4.786H11.284a2.166,2.166,0,0,0-2.166,2.166v38.292a2.166,2.166,0,0,0,2.166,2.166H55.441a2.166,2.166,0,0,0,2.166-2.166V87.543h4.787v21.084a2.166,2.166,0,0,0,2.166,2.166H76.577v4.877H4.331V4.332H115.669V14.375a2.166,2.166,0,1,0,4.331,0V2.167A2.166,2.166,0,0,0,117.834,0ZM13.449,82.607h6.585a1.637,1.637,0,0,1,1.635,1.635V95.533a1.637,1.637,0,0,1-1.635,1.635H13.449Z" transform="translate(30 25)"/></g></g><g transform="translate(72.371 18.93)"><g class="e" transform="matrix(1, 0, 0, 1, -102.37, -43.93)"><path class="b" d="M326.939,80.77H310.951a2.166,2.166,0,0,0-2.166,2.166v29.741a2.166,2.166,0,0,0,2.166,2.166h15.988a2.166,2.166,0,0,0,2.166-2.166V82.936A2.166,2.166,0,0,0,326.939,80.77Zm-2.166,22.667h-4.131V92.176h4.131Zm0-15.593h-6.3a2.166,2.166,0,0,0-2.166,2.166V105.6a2.166,2.166,0,0,0,2.166,2.166h6.3v2.743H313.116V85.1h11.657Z" transform="translate(-206.41 -36.84)"/></g></g><g transform="translate(28.497 87.72)"><g class="d" transform="matrix(1, 0, 0, 1, -58.5, -112.72)"><circle class="b" cx="2.166" cy="2.166" r="2.166" transform="translate(58.5 112.72)"/></g></g><g transform="translate(20.66 39.735)"><g class="c" transform="matrix(1, 0, 0, 1, -50.66, -64.74)"><circle class="b" cx="2.166" cy="2.166" r="2.166" transform="translate(50.66 64.74)"/></g></g></g></svg>