<svg xmlns="http://www.w3.org/2000/svg" xmlns:xlink="http://www.w3.org/1999/xlink" viewBox="0 0 66.927 67"><defs><style>.a{opacity:0.8;}.b{fill:url(#a);}</style><linearGradient id="a" x1="0.061" y1="0.703" x2="0.832" y2="0.681" gradientUnits="objectBoundingBox"><stop offset="0" stop-color="#34495e"/><stop offset="1" stop-color="#e84c3d"/></linearGradient></defs><g class="a" transform="translate(-0.279)"><g transform="translate(21.194 41.894)"><path class="b" d="M161.518,320.143h-.106a1.307,1.307,0,0,0,0,2.614h.123a1.307,1.307,0,0,0-.018-2.614Z" transform="translate(-160.105 -320.143)"/></g><g transform="translate(7.076 6.862)"><path class="b" d="M67.647,52.438A15.424,15.424,0,1,0,83.072,67.862,15.442,15.442,0,0,0,67.647,52.438Zm0,28.235a12.751,12.751,0,0,1-8.116-2.907,3.22,3.22,0,0,1,2.621-2.872l2.119-.392L66.54,78.13a1.307,1.307,0,0,0,2.217,0L71.024,74.5l2.119.392a3.22,3.22,0,0,1,2.621,2.872A12.751,12.751,0,0,1,67.647,80.673Zm-2.5-15.04a6.658,6.658,0,0,0,4.325-1.589l1.753,1.03V66.4a3.58,3.58,0,1,1-7.16,0v-.769H65.15Zm-1.08-2.615a3.58,3.58,0,0,1,6.937-1.106l-1.08-.634a1.307,1.307,0,0,0-1.664.287,4.053,4.053,0,0,1-3.114,1.453Zm4.765,10.054-1.187,1.9-1.189-1.9a3.172,3.172,0,0,0,.278-.543,6.174,6.174,0,0,0,1.819,0A3.175,3.175,0,0,0,68.835,73.072Zm9.013,2.53a5.834,5.834,0,0,0-4.231-3.279l-2.213-.409A.59.59,0,0,1,71,71.6a6.193,6.193,0,0,0,2.838-5.2V63.149a6.194,6.194,0,1,0-12.388,0V66.4a6.193,6.193,0,0,0,2.837,5.2.587.587,0,0,1-.4.311l-2.212.409a5.834,5.834,0,0,0-4.23,3.279,12.81,12.81,0,1,1,20.4,0Z" transform="translate(-52.223 -52.438)"/></g><g transform="translate(0.279 0.065)"><path class="b" d="M65.076,55.183,46.852,36.959a1.307,1.307,0,0,0-1.849,0L44,37.964l-2.971-2.971A22.223,22.223,0,1,0,.279,22.716,22.016,22.016,0,0,0,4.87,36.244a22.376,22.376,0,0,0,11.595,7.864,1.307,1.307,0,0,0,.709-2.516,19.606,19.606,0,1,1,21.142-7.277,1.26,1.26,0,0,0-.083.113,19.616,19.616,0,0,1-3.706,3.785,1.3,1.3,0,0,0-.277.21l0,0A19.522,19.522,0,0,1,27.429,41.7a1.307,1.307,0,1,0,.655,2.531,22.139,22.139,0,0,0,6.961-3.162l2.925,2.925-1.226,1.226a1.307,1.307,0,0,0,0,1.849l4.1,4.1h0L54.968,65.292A7.148,7.148,0,1,0,65.076,55.183ZM37.128,39.453A22.26,22.26,0,0,0,39.442,37.1l2.708,2.708-2.331,2.331Zm26.1,23.99a4.539,4.539,0,0,1-6.411,0l-13.2-13.2,3.205-3.205a1.307,1.307,0,0,0-1.849-1.849L41.769,48.4l-2.253-2.253,1.225-1.225h0l4.18-4.18h0l1-1,17.3,17.3a4.534,4.534,0,0,1,0,6.411Z" transform="translate(-0.279 -0.494)"/></g><g transform="translate(42.526)"><path class="b" d="M337.081,0a10.722,10.722,0,0,0-9.239,5.293h-3.416a1.307,1.307,0,0,0,0,2.614h2.312a10.712,10.712,0,0,0,9.088,13.454V33.409a1.307,1.307,0,1,0,2.614,0V21.348A10.717,10.717,0,0,0,337.081,0Zm5.4,16.76a8.085,8.085,0,0,1-10.791,0v-.081a1.62,1.62,0,0,1,1.323-1.592l1.073-.2a4.488,4.488,0,0,0,6,0l1.073.2a1.62,1.62,0,0,1,1.323,1.592Zm-7.28-5.224V9.459a1.885,1.885,0,0,1,3.769,0v2.077a1.885,1.885,0,0,1-3.769,0Zm9.157,2.756a4.229,4.229,0,0,0-2.72-1.776l-.155-.029a4.5,4.5,0,0,0,.1-.951V9.459a4.5,4.5,0,0,0-9,0v2.077a4.5,4.5,0,0,0,.1.951l-.155.029a4.229,4.229,0,0,0-2.72,1.776,8.1,8.1,0,1,1,14.544,0Z" transform="translate(-323.12)"/></g><g transform="translate(55.232 37.174)"><path class="b" d="M422.452,284.458a1.306,1.306,0,1,0,.383.924A1.315,1.315,0,0,0,422.452,284.458Z" transform="translate(-420.221 -284.075)"/></g><g transform="translate(0.279 41.892)"><path class="b" d="M28.154,333.215h-6.52A10.709,10.709,0,0,0,8.122,324.2V321.44a1.307,1.307,0,0,0-2.614,0v3.88a10.716,10.716,0,1,0,16.126,10.509h6.52a1.307,1.307,0,0,0,0-2.615Zm-11.761,7.348a8.085,8.085,0,0,1-10.791,0v-.081a1.62,1.62,0,0,1,1.323-1.592l1.073-.2a4.488,4.488,0,0,0,6,0l1.073.2a1.62,1.62,0,0,1,1.323,1.592Zm-7.28-5.224v-2.077a1.885,1.885,0,0,1,3.769,0v2.077a1.885,1.885,0,1,1-3.769,0Zm9.157,2.756a4.229,4.229,0,0,0-2.72-1.776l-.155-.029a4.5,4.5,0,0,0,.1-.951v-2.077a4.5,4.5,0,0,0-9,0v2.077a4.5,4.5,0,0,0,.1.951l-.155.029a4.229,4.229,0,0,0-2.72,1.776,8.1,8.1,0,1,1,14.544,0Z" transform="translate(-0.279 -320.133)"/></g><g transform="translate(32.435 54.974)"><path class="b" d="M252.546,420.1h-5.228a1.307,1.307,0,1,0,0,2.614h5.228a1.307,1.307,0,1,0,0-2.614Z" transform="translate(-246.011 -420.1)"/></g><g transform="translate(26.161 60.456)"><path class="b" d="M199.37,461.991a1.307,1.307,0,0,0,0,2.614h.013a1.307,1.307,0,1,0-.013-2.614Z" transform="translate(-198.063 -461.991)"/></g><g transform="translate(32.429 60.456)"><path class="b" d="M247.269,461.991a1.307,1.307,0,0,0,0,2.614h.013a1.307,1.307,0,1,0-.013-2.614Z" transform="translate(-245.962 -461.991)"/></g><g transform="translate(38.697 60.456)"><path class="b" d="M295.168,461.991a1.307,1.307,0,0,0,0,2.614h.013a1.307,1.307,0,1,0-.013-2.614Z" transform="translate(-293.861 -461.991)"/></g></g></svg>