<svg xmlns="http://www.w3.org/2000/svg" xmlns:xlink="http://www.w3.org/1999/xlink" viewBox="0 0 155.26 155.26"><defs><style>.a{opacity:0.8;}.b{fill:url(#a);}.c{filter:url(#n);}.d{filter:url(#k);}.e{filter:url(#h);}.f{filter:url(#e);}.g{filter:url(#b);}</style><linearGradient id="a" x1="0.061" y1="0.703" x2="0.832" y2="0.681" gradientUnits="objectBoundingBox"><stop offset="0" stop-color="#34495e"/><stop offset="1" stop-color="#e84c3d"/></linearGradient><filter id="b" x="41.552" y="42.827" width="92.549" height="92.549" filterUnits="userSpaceOnUse"><feOffset dx="15" dy="20" input="SourceAlpha"/><feGaussianBlur stdDeviation="15" result="c"/><feFlood flood-opacity="0.161"/><feComposite operator="in" in2="c"/><feComposite in="SourceGraphic"/></filter><filter id="e" x="21.586" y="33.904" width="97.729" height="107.844" filterUnits="userSpaceOnUse"><feOffset dx="15" dy="20" input="SourceAlpha"/><feGaussianBlur stdDeviation="15" result="f"/><feFlood flood-opacity="0.161"/><feComposite operator="in" in2="f"/><feComposite in="SourceGraphic"/></filter><filter id="h" x="14.021" y="13.511" width="92.549" height="97.648" filterUnits="userSpaceOnUse"><feOffset dx="15" dy="20" input="SourceAlpha"/><feGaussianBlur stdDeviation="15" result="i"/><feFlood flood-opacity="0.161"/><feComposite operator="in" in2="i"/><feComposite in="SourceGraphic"/></filter><filter id="k" x="0" y="0" width="155.26" height="155.26" filterUnits="userSpaceOnUse"><feOffset dx="15" dy="20" input="SourceAlpha"/><feGaussianBlur stdDeviation="15" result="l"/><feFlood flood-opacity="0.161"/><feComposite operator="in" in2="l"/><feComposite in="SourceGraphic"/></filter><filter id="n" x="46.65" y="42.827" width="98.412" height="92.549" filterUnits="userSpaceOnUse"><feOffset dx="15" dy="20" input="SourceAlpha"/><feGaussianBlur stdDeviation="15" result="o"/><feFlood flood-opacity="0.161"/><feComposite operator="in" in2="o"/><feComposite in="SourceGraphic"/></filter></defs><g class="a" transform="translate(30 25)"><g class="g" transform="matrix(1, 0, 0, 1, -30, -25)"><path class="b" d="M327.275,336a1.275,1.275,0,1,0,1.275,1.275A1.275,1.275,0,0,0,327.275,336Zm0,0" transform="translate(-254.45 -268.17)"/></g><g class="f" transform="matrix(1, 0, 0, 1, -30, -25)"><path class="b" d="M173.264,273.648a1.275,1.275,0,0,1,0-2.549,2.048,2.048,0,0,1,1.379.666,1.274,1.274,0,1,0,1.772-1.832,4.919,4.919,0,0,0-1.877-1.173v-1.485a1.275,1.275,0,1,0-2.549,0v1.494a3.824,3.824,0,0,0,1.275,7.429,1.275,1.275,0,0,1,0,2.549,2.307,2.307,0,0,1-1.655-.964,1.275,1.275,0,0,0-1.951,1.641,5.285,5.285,0,0,0,2.332,1.66v1.488a1.275,1.275,0,1,0,2.549,0v-1.494a3.824,3.824,0,0,0-1.275-7.429Zm0,0" transform="translate(-117.77 -207.1)"/></g><g class="e" transform="matrix(1, 0, 0, 1, -30, -25)"><path class="b" d="M111.275,113.648a1.275,1.275,0,0,0,1.275-1.275v-5.1a1.275,1.275,0,1,0-2.549,0v5.1A1.275,1.275,0,0,0,111.275,113.648Zm0,0" transform="translate(-65.98 -67.49)"/></g><g class="d" transform="matrix(1, 0, 0, 1, -30, -25)"><path class="b" d="M60.161,30.081v-10.2a6.38,6.38,0,0,0-6.373-6.373H46.65V3.824A3.828,3.828,0,0,0,42.827,0H19.119A3.828,3.828,0,0,0,15.3,3.824V8.412H11.471a3.828,3.828,0,0,0-3.824,3.824v1.275H6.373A6.38,6.38,0,0,0,0,19.884v39A6.38,6.38,0,0,0,6.373,65.26h39a6.383,6.383,0,0,0,6.245-5.1h2.168a6.38,6.38,0,0,0,6.373-6.373V50.474h1.275A3.828,3.828,0,0,0,65.26,46.65V35.179A5.1,5.1,0,0,0,60.161,30.081Zm2.549,5.1a2.549,2.549,0,0,1-2.549,2.549v-5.1A2.552,2.552,0,0,1,62.71,35.179ZM53.788,16.06a3.828,3.828,0,0,1,3.824,3.824V37.728H51.749V30.081a6.383,6.383,0,0,0-5.1-6.245V16.06ZM17.844,3.824a1.276,1.276,0,0,1,1.275-1.275H42.827A1.276,1.276,0,0,1,44.1,3.824V23.708H38.238V12.236a3.828,3.828,0,0,0-3.824-3.824H17.844ZM30.59,23.708V10.962h3.824a1.276,1.276,0,0,1,1.275,1.275V23.708Zm-7.648,0V10.962h5.1V23.708ZM10.2,12.236a1.276,1.276,0,0,1,1.275-1.275h8.922V23.708H10.2ZM6.373,16.06H7.648v7.648h-1a3.942,3.942,0,0,1-4.1-3.824A3.828,3.828,0,0,1,6.373,16.06Zm39,46.65h-39a3.828,3.828,0,0,1-3.824-3.824V24.9a6.864,6.864,0,0,0,4.1,1.353h38.73A3.828,3.828,0,0,1,49.2,30.081v7.648H40.277a3.828,3.828,0,0,0-3.824,3.824v5.1a3.828,3.828,0,0,0,3.824,3.824H49.2v8.412a3.828,3.828,0,0,1-3.824,3.824Zm12.236-8.922a3.828,3.828,0,0,1-3.824,3.824H51.749V50.474h5.863Zm3.824-5.863H40.277A1.276,1.276,0,0,1,39,46.65v-5.1a1.276,1.276,0,0,1,1.275-1.275H60.161a5.064,5.064,0,0,0,2.549-.683V46.65A1.276,1.276,0,0,1,61.436,47.925Zm0,0" transform="translate(30 25)"/></g><g class="c" transform="matrix(1, 0, 0, 1, -30, -25)"><path class="b" d="M373.138,336h-5.863a1.275,1.275,0,1,0,0,2.549h5.863a1.275,1.275,0,0,0,0-2.549Zm0,0" transform="translate(-289.35 -268.17)"/></g></g></svg>